<?xml version="1.0" encoding="UTF-8"?><svg id="Layer_1" xmlns="http://www.w3.org/2000/svg" viewBox="0 0 13.4 19.4"><defs><style>.cls-1,.cls-2{stroke-width:0px;}.cls-2{fill:#fff;}</style></defs><polygon class="cls-2" points="4.8 1.7 1.8 10.6 1.8 14.7 5.1 11.4 5.5 12.2 8 4.8 4.8 1.7"/><polygon class="cls-1" points="4.5 2.7 2.8 7.6 2.8 12.2 5.3 9.8 5.9 10.9 7.6 5.9 4.5 2.7"/><polygon class="cls-2" points="0 0 0 11.9 3 3 0 0"/><polygon class="cls-1" points="1 2.4 1 9 2.6 4.1 1 2.4"/><polygon class="cls-2" points="10.1 18.4 11.7 17.5 9.1 12.7 13.4 12.7 8.2 7.5 5.8 14.8 8.2 19.4 10.1 18.4"/><polygon class="cls-1" points="10.2 17 7.5 11.8 11.1 11.8 7.9 8.5 6.2 13.6 8.5 17.9 10.2 17"/></svg>